<svg xmlns="http://www.w3.org/2000/svg" width="479" height="136" viewBox="0 0 479 136"><rect x="0" y="0" width="479" height="64" fill="#2b2b2b"/><rect x="0" y="64" width="479" height="72" fill="#f5f3f0"/><rect x="16.0" y="14" width="62.6" height="36" rx="18.0" fill="#2b2b2b" stroke="#4a443e" stroke-width="1.2"/><text x="30.0" y="37.8" font-family="Arial" font-size="16" font-weight="700" fill="#ffffff" fill-opacity="0.85">Alle</text><rect x="87.6" y="14" width="112.2" height="36" rx="18.0" fill="#2b2b2b" stroke="#4a443e" stroke-width="1.2"/><text x="101.6" y="37.8" font-family="Arial" font-size="16" font-weight="700" fill="#ffffff" fill-opacity="0.85">🔧 Montage</text><rect x="208.7" y="14" width="112.2" height="36" rx="18.0" fill="#d7c1ae" stroke="none" stroke-width="1.2"/><text x="222.7" y="37.8" font-family="Arial" font-size="16" font-weight="700" fill="#2b2b2b">⚡ Elektro</text><rect x="329.9" y="14" width="112.2" height="36" rx="18.0" fill="#2b2b2b" stroke="#4a443e" stroke-width="1.2"/><text x="343.9" y="37.8" font-family="Arial" font-size="16" font-weight="700" fill="#ffffff" fill-opacity="0.85">🚿 Sanitär</text><text x="16" y="82" font-family="Arial" font-size="12.5" fill="#7a7a7a">Diese Felder erscheinen:</text><rect x="16.0" y="90" width="169.7" height="34" rx="14" fill="#b8860b" stroke="none" stroke-width="1.5"/><text x="30.0" y="112.0" font-family="Arial" font-size="13.5" font-weight="700" fill="#ffffff">✓ Elektroanschluss</text><rect x="194.7" y="90" width="145.6" height="34" rx="14" fill="#ffffff" stroke="#d4cdc6" stroke-width="1.5"/><text x="208.7" y="112.0" font-family="Arial" font-size="13.5" font-weight="700" fill="#2b2b2b">○ Inbetriebnahme</text><rect x="349.3" y="90" width="115.4" height="34" rx="14" fill="#ffffff" stroke="#d4cdc6" stroke-width="1.5"/><text x="363.3" y="112.0" font-family="Arial" font-size="13.5" font-weight="700" fill="#2b2b2b">○ Einweisung</text></svg>