<svg xmlns="http://www.w3.org/2000/svg" width="560" height="254" viewBox="0 0 560 254"><rect width="560" height="254" fill="#f5f3f0"/><rect x="0" y="0" width="4" height="254" fill="#d7c1ae"/><rect x="18" y="16" width="120" height="18" rx="4" fill="#2b2b2b"/><text x="26" y="29" font-family="Arial" font-size="10.5" font-weight="700" fill="#d7c1ae">01.02.00.00.01.</text><text x="18" y="56" font-family="Arial" font-size="16" font-weight="700" fill="#2b2b2b">Mischarmatur mit Schlauchhalter-Set</text><text x="18" y="76" font-family="Arial" font-size="12.5" fill="#a8a8a8">1 Stk · KWC/Armag · 100.191</text><rect x="18.0" y="92" width="110.8" height="30" rx="14" fill="#3a7a3a" stroke="none" stroke-width="1.5"/><text x="29.0" y="112.0" font-family="Arial" font-size="13.5" font-weight="700" fill="#ffffff">✓ Geliefert</text><rect x="136.8" y="92" width="103.2" height="30" rx="14" fill="#3a7a3a" stroke="none" stroke-width="1.5"/><text x="147.8" y="112.0" font-family="Arial" font-size="13.5" font-weight="700" fill="#ffffff">✓ Montiert</text><rect x="248.0" y="92" width="163.7" height="30" rx="14" fill="#1a5f7a" stroke="none" stroke-width="1.5"/><text x="259.0" y="112.0" font-family="Arial" font-size="13.5" font-weight="700" fill="#ffffff">✓ Sanitäranschluss</text><rect x="18.0" y="130" width="177.4" height="30" rx="14" fill="#ffffff" stroke="#d4cdc6" stroke-width="1.5"/><text x="29.0" y="150.0" font-family="Arial" font-size="13.5" font-weight="700" fill="#2b2b2b">○ Dichtigkeitsprüfung</text><rect x="18" y="174" width="75.0" height="30" rx="15" fill="#2b2b2b"/><text x="30" y="194" font-family="Arial" font-size="13.5" font-weight="700" fill="#ffffff">📷 Foto</text><rect x="138" y="174" width="112.8" height="30" rx="15" fill="#2b2b2b"/><text x="150" y="194" font-family="Arial" font-size="13.5" font-weight="700" fill="#ffffff">📄 Protokoll</text><rect x="18" y="214" width="524" height="28" rx="6" fill="#ffffff" stroke="#d4cdc6" stroke-width="1"/><text x="28" y="233" font-family="Arial" font-size="12.5" fill="#a8a8a8">Anmerkung …</text></svg>